<!DOCTYPE svg PUBLIC "-//W3C//DTD SVG 20010904//EN" "http://www.w3.org/TR/2001/REC-SVG-20010904/DTD/svg10.dtd">
<svg version="1.0" xmlns="http://www.w3.org/2000/svg" width="84px" height="111px" viewBox="0 0 840 1110" preserveAspectRatio="xMidYMid meet">
<g id="layer101" fill="#ffffff" stroke="none">
<path d="M166 1063 c-4 -16 -9 -36 -12 -45 -13 -43 249 -71 374 -39 55 14 58 18 46 80 l-7 31 -197 0 -198 0 -6 -27z"/>
<path d="M49 953 c-12 -20 -18 -38 -13 -43 15 -15 155 -58 228 -71 104 -18 233 -7 340 29 48 17 93 35 98 40 16 16 -30 85 -51 76 -96 -40 -139 -48 -281 -48 -130 0 -153 2 -222 26 l-78 26 -21 -35z"/>
<path d="M269 759 c-23 -23 -19 -47 13 -92 11 -16 18 -37 15 -48 -4 -14 0 -19 17 -19 24 0 46 17 46 36 0 7 -16 31 -35 54 -19 23 -35 48 -35 55 0 17 23 25 50 18 19 -5 21 -11 16 -47 -3 -23 -2 -48 4 -56 7 -12 12 -7 25 22 19 48 19 54 -5 78 -27 27 -83 27 -111 -1z"/>
<path d="M515 722 c-71 -30 -101 -50 -134 -87 -52 -59 -43 -107 41 -205 118 -139 138 -169 138 -211 0 -33 -6 -45 -35 -70 -23 -21 -40 -48 -50 -82 -20 -68 -18 -80 5 -35 28 52 61 74 153 102 128 39 187 99 187 189 0 65 -41 116 -126 158 -105 52 -237 52 -173 0 18 -15 35 -17 93 -13 67 4 74 2 104 -23 59 -49 64 -143 9 -192 -23 -22 -80 -53 -95 -53 -5 0 -17 18 -27 40 -10 22 -49 72 -86 110 -53 55 -72 84 -85 125 -31 99 11 168 122 201 l54 15 -18 24 c-20 29 -25 29 -77 7z"/>
<path d="M145 674 c-56 -29 -93 -64 -114 -107 -29 -60 -27 -113 7 -177 35 -69 99 -112 211 -146 75 -22 92 -31 130 -72 28 -30 39 -38 31 -22 -29 57 -83 99 -181 140 -54 23 -109 53 -122 66 -55 55 -42 149 30 221 l45 46 18 -41 c10 -22 48 -72 84 -111 51 -56 69 -84 82 -129 16 -53 44 -92 65 -92 33 0 -24 123 -98 209 -65 77 -87 122 -80 167 10 58 -44 82 -108 48z"/>
</g>


</svg>